<svg width="0" height="0" class="hidden">
  <symbol aria-hidden="true" data-prefix="fab" data-icon="instagram" xmlns="http://www.w3.org/2000/svg" viewBox="0 0 448 512" id="instagram-brands">
    <path fill="currentColor" d="M224.1 141c-63.6 0-114.9 51.3-114.9 114.9s51.3 114.9 114.9 114.9S339 319.5 339 255.9 287.7 141 224.1 141zm0 189.6c-41.1 0-74.7-33.5-74.7-74.7s33.5-74.7 74.7-74.7 74.7 33.5 74.7 74.7-33.6 74.7-74.7 74.7zm146.4-194.3c0 14.9-12 26.8-26.8 26.8-14.9 0-26.8-12-26.8-26.8s12-26.8 26.8-26.8 26.8 12 26.8 26.8zm76.1 27.2c-1.7-35.9-9.9-67.7-36.2-93.9-26.2-26.2-58-34.4-93.9-36.2-37-2.1-147.9-2.1-184.9 0-35.8 1.7-67.6 9.9-93.9 36.1s-34.4 58-36.2 93.9c-2.1 37-2.1 147.9 0 184.9 1.7 35.9 9.9 67.7 36.2 93.9s58 34.4 93.9 36.2c37 2.1 147.9 2.1 184.9 0 35.9-1.7 67.7-9.9 93.9-36.2 26.2-26.2 34.4-58 36.2-93.9 2.1-37 2.1-147.8 0-184.8zM398.8 388c-7.8 19.6-22.9 34.7-42.6 42.6-29.5 11.7-99.5 9-132.1 9s-102.7 2.6-132.1-9c-19.6-7.8-34.7-22.9-42.6-42.6-11.7-29.5-9-99.5-9-132.1s-2.6-102.7 9-132.1c7.8-19.6 22.9-34.7 42.6-42.6 29.5-11.7 99.5-9 132.1-9s102.7-2.6 132.1 9c19.6 7.8 34.7 22.9 42.6 42.6 11.7 29.5 9 99.5 9 132.1s2.7 102.7-9 132.1z"></path>
  </symbol>
  <symbol aria-hidden="true" data-prefix="fas" data-icon="map-marker-alt" xmlns="http://www.w3.org/2000/svg" viewBox="0 0 384 512" id="map-marker-alt-solid">
    <path fill="currentColor" d="M172.268 501.67C26.97 291.031 0 269.413 0 192 0 85.961 85.961 0 192 0s192 85.961 192 192c0 77.413-26.97 99.031-172.268 309.67-9.535 13.774-29.93 13.773-39.464 0zM192 272c44.183 0 80-35.817 80-80s-35.817-80-80-80-80 35.817-80 80 35.817 80 80 80z"></path>
  </symbol>
  <symbol aria-hidden="true" data-prefix="fas" data-icon="phone" xmlns="http://www.w3.org/2000/svg" viewBox="0 0 512 512" id="phone-solid">
    <path fill="currentColor" d="M493.4 24.6l-104-24c-11.3-2.6-22.9 3.3-27.5 13.9l-48 112c-4.2 9.8-1.4 21.3 6.9 28l60.6 49.6c-36 76.7-98.9 140.5-177.2 177.2l-49.6-60.6c-6.8-8.3-18.2-11.1-28-6.9l-112 48C3.9 366.5-2 378.1.6 389.4l24 104C27.1 504.2 36.7 512 48 512c256.1 0 464-207.5 464-464 0-11.2-7.7-20.9-18.6-23.4z"></path>
  </symbol>
  <symbol aria-hidden="true" data-prefix="fas" data-icon="shower" xmlns="http://www.w3.org/2000/svg" viewBox="0 0 512 512" id="shower-solid">
    <path fill="currentColor" d="M304 320a16 16 0 1016 16 16 16 0 00-16-16zm32-96a16 16 0 1016 16 16 16 0 00-16-16zm32 64a16 16 0 10-16-16 16 16 0 0016 16zm-32 32a16 16 0 10-16-16 16 16 0 0016 16zm-32-64a16 16 0 1016 16 16 16 0 00-16-16zm128-32a16 16 0 10-16-16 16 16 0 0016 16zm-48 16a16 16 0 1016-16 16 16 0 00-16 16zm-16-48a16 16 0 1016 16 16 16 0 00-16-16zm96 32a16 16 0 1016 16 16 16 0 00-16-16zm32-32a16 16 0 1016 16 16 16 0 00-16-16zm-64 64a16 16 0 1016 16 16 16 0 00-16-16zm-32 32a16 16 0 1016 16 16 16 0 00-16-16zm-64 64a16 16 0 1016 16 16 16 0 00-16-16zm-32 32a16 16 0 1016 16 16 16 0 00-16-16zm64-64a16 16 0 1016 16 16 16 0 00-16-16zm21.65-218.35l-11.3-11.31a16 16 0 00-22.63 0L350.05 96A111.19 111.19 0 00272 64c-19.24 0-37.08 5.3-52.9 13.85l-10-10A121.72 121.72 0 00123.44 32C55.49 31.5 0 92.91 0 160.85V464a16 16 0 0016 16h32a16 16 0 0016-16V158.4c0-30.15 21-58.2 51-61.93a58.38 58.38 0 0148.93 16.67l10 10C165.3 138.92 160 156.76 160 176a111.23 111.23 0 0032 78.05l-5.66 5.67a16 16 0 000 22.62l11.3 11.31a16 16 0 0022.63 0l169.38-169.37a16 16 0 000-22.63z"></path>
  </symbol>
  <symbol aria-hidden="true" data-prefix="fab" data-icon="twitter" xmlns="http://www.w3.org/2000/svg" viewBox="0 0 512 512" id="twitter-brands">
    <path fill="currentColor" d="M459.37 151.716c.325 4.548.325 9.097.325 13.645 0 138.72-105.583 298.558-298.558 298.558-59.452 0-114.68-17.219-161.137-47.106 8.447.974 16.568 1.299 25.34 1.299 49.055 0 94.213-16.568 130.274-44.832-46.132-.975-84.792-31.188-98.112-72.772 6.498.974 12.995 1.624 19.818 1.624 9.421 0 18.843-1.3 27.614-3.573-48.081-9.747-84.143-51.98-84.143-102.985v-1.299c13.969 7.797 30.214 12.67 47.431 13.319-28.264-18.843-46.781-51.005-46.781-87.391 0-19.492 5.197-37.36 14.294-52.954 51.655 63.675 129.3 105.258 216.365 109.807-1.624-7.797-2.599-15.918-2.599-24.04 0-57.828 46.782-104.934 104.934-104.934 30.213 0 57.502 12.67 76.67 33.137 23.715-4.548 46.456-13.32 66.599-25.34-7.798 24.366-24.366 44.833-46.132 57.827 21.117-2.273 41.584-8.122 60.426-16.243-14.292 20.791-32.161 39.308-52.628 54.253z"></path>
  </symbol>
  <symbol aria-hidden="true" data-prefix="fas" data-icon="user-alt" xmlns="http://www.w3.org/2000/svg" viewBox="0 0 512 512" id="user-alt-solid">
    <path fill="currentColor" d="M256 288c79.5 0 144-64.5 144-144S335.5 0 256 0 112 64.5 112 144s64.5 144 144 144zm128 32h-55.1c-22.2 10.2-46.9 16-72.9 16s-50.6-5.8-72.9-16H128C57.3 320 0 377.3 0 448v16c0 26.5 21.5 48 48 48h416c26.5 0 48-21.5 48-48v-16c0-70.7-57.3-128-128-128z"></path>
  </symbol>
  <symbol aria-hidden="true" data-prefix="fas" data-icon="at" xmlns="http://www.w3.org/2000/svg" viewBox="0 0 512 512" id="at-solid">
    <path fill="currentColor" d="M256 8C118.941 8 8 118.919 8 256c0 137.059 110.919 248 248 248 48.154 0 95.342-14.14 135.408-40.223 12.005-7.815 14.625-24.288 5.552-35.372l-10.177-12.433c-7.671-9.371-21.179-11.667-31.373-5.129C325.92 429.757 291.314 440 256 440c-101.458 0-184-82.542-184-184S154.542 72 256 72c100.139 0 184 57.619 184 160 0 38.786-21.093 79.742-58.17 83.693-17.349-.454-16.91-12.857-13.476-30.024l23.433-121.11C394.653 149.75 383.308 136 368.225 136h-44.981a13.518 13.518 0 00-13.432 11.993l-.01.092c-14.697-17.901-40.448-21.775-59.971-21.775-74.58 0-137.831 62.234-137.831 151.46 0 65.303 36.785 105.87 96 105.87 26.984 0 57.369-15.637 74.991-38.333 9.522 34.104 40.613 34.103 70.71 34.103C462.609 379.41 504 307.798 504 232 504 95.653 394.023 8 256 8zm-21.68 304.43c-22.249 0-36.07-15.623-36.07-40.771 0-44.993 30.779-72.729 58.63-72.729 22.292 0 35.601 15.241 35.601 40.77 0 45.061-33.875 72.73-58.161 72.73z"></path>
  </symbol>
  <symbol aria-hidden="true" data-prefix="fas" data-icon="bed" xmlns="http://www.w3.org/2000/svg" viewBox="0 0 640 512" id="bed-solid">
    <path fill="currentColor" d="M176 256c44.11 0 80-35.89 80-80s-35.89-80-80-80-80 35.89-80 80 35.89 80 80 80zm352-128H304c-8.84 0-16 7.16-16 16v144H64V80c0-8.84-7.16-16-16-16H16C7.16 64 0 71.16 0 80v352c0 8.84 7.16 16 16 16h32c8.84 0 16-7.16 16-16v-48h512v48c0 8.84 7.16 16 16 16h32c8.84 0 16-7.16 16-16V240c0-61.86-50.14-112-112-112z"></path>
  </symbol>
  <symbol aria-hidden="true" data-prefix="fab" data-icon="facebook" xmlns="http://www.w3.org/2000/svg" viewBox="0 0 512 512" id="facebook-brands">
    <path fill="currentColor" d="M504 256C504 119 393 8 256 8S8 119 8 256c0 123.78 90.69 226.38 209.25 245V327.69h-63V256h63v-54.64c0-62.15 37-96.48 93.67-96.48 27.14 0 55.52 4.84 55.52 4.84v61h-31.28c-30.8 0-40.41 19.12-40.41 38.73V256h68.78l-11 71.69h-57.78V501C413.31 482.38 504 379.78 504 256z"></path>
  </symbol>
</svg>